# xmcd CD database file
#
# Track frame offsets:
#	150
#	28335
#	60935
#	95422
#	135322
#	167570
#	205800
#	237000
#
# Disc length: 3710 seconds
#
# Revision: 1
# Processed by: cddbd v1.4PL0 Copyright (c) Steve Scherf et al.
# Submitted via: CDex 1.50beta9
#
DISCID=5d0e7c08
DTITLE=Bill Evans - Bill Evans Trio - Consecration - The Last Complete Collection - II
DYEAR=1980
DGENRE=Jazz
TTITLE0=Tiffany
TTITLE1=Polka Dots and Moonbeams
TTITLE2=Like Someone in Love
TTITLE3=Letter to Evan
TTITLE4=Gary's Theme
TTITLE5=Days of Wine and Roses
TTITLE6=I Do it For Your Love
TTITLE7=My Romance
EXTD=YEAR: 1980
EXTT0=
EXTT1=
EXTT2=
EXTT3=
EXTT4=
EXTT5=
EXTT6=
EXTT7=
PLAYORDER=
